<svg xmlns="http://www.w3.org/2000/svg" width="500" height="500" role="img" aria-labelledby="premail_title premail_desc">
 <title id="premail_title">Premail</title>
 <desc id="premail_desc">Logo for Premail.dev</desc>
 <style type="text/css" >
   <![CDATA[
   .disc {
   fill: #cde4d9;
   }
   .crane {
   fill: #000;
   }
   .hoist {
   fill: #000;
   }
   .p {
   fill: #00b86f;
   }
   ]]>
 </style>
 <a
  href="https://premail.dev" hreflang="en" transform="matrix(3.95,0,0,3.95,2.5,1.5)">
   <rect class="disc" role="presentation" width="125" height="125" x="0" y="0" rx="125" ry="125" />
   <g class="p" role="presentation">
     <path d="M 84.35,101.297 V 68.316 h 4.394 l 0.896,2.261 q 0.811,-0.64 1.878,-1.237 1.066,-0.598 2.304,-0.939 1.237,-0.384 2.56,-0.384 2.176,0 3.712,0.853 1.578,0.854 2.56,2.432 0.981,1.536 1.408,3.712 0.47,2.134 0.47,4.736 0,3.755 -0.812,6.4 -0.768,2.603 -2.56,3.968 -1.749,1.366 -4.778,1.366 -1.707,0 -3.499,-0.47 -1.75,-0.469 -3.243,-1.237 v 11.52 z M 94.718,87.132 q 1.237,0 2.261,-0.64 1.024,-0.683 1.621,-2.262 0.64,-1.578 0.64,-4.48 0,-2.773 -0.597,-4.437 -0.597,-1.664 -1.621,-2.347 -0.982,-0.682 -2.262,-0.682 -1.578,0 -2.858,0.512 -1.28,0.47 -2.262,0.981 v 11.947 q 1.11,0.64 2.432,1.024 1.323,0.384 2.646,0.384 z" aria-label="p" />
   </g>
   <path class="crane" role="presentation" d="m 55.592,17.792 c -0.51,0 -0.957,0.342 -1.092,0.834 l -2.965,10.855 -21.924,5.334 0.012,0.04 -13.924,4.023 v 1.959 h 10.397 v -1.746 h 1.15 v 1.746 h 10.398 v -1.746 h 11.62 V 98.355 H 46.92 v 3.466 H 36.918 v 1.71 h 37.39 v -1.71 H 64.102 v -3.466 h -2.183 v -6.956 h 0.002 V 39.091 h 27.307 v 1.808 h 0.996 v 12.657 c 0,0.215 0.065,0.423 0.191,0.597 l 2.041,2.852 v 1.836 a 3.446,3.446 0 0 0 -2.307,3.246 3.44,3.44 0 0 0 3.438,3.436 c 1.093,0 2.13,-0.529 2.775,-1.413 a 1.13,1.13 0 0 0 -0.246,-1.58 1.13,1.13 0 0 0 -1.58,0.246 1.175,1.175 0 0 1 -2.123,-0.69 c 0,-0.647 0.527,-1.173 1.174,-1.173 0.625,0 1.13,-0.507 1.13,-1.133 v -2.775 l 2.042,-2.854 c 0.125,-0.174 0.191,-0.382 0.191,-0.597 V 40.899 h 1.485 v -1.808 h 5.236 a 1.13,1.13 0 0 0 1.064,-0.75 c 0.163,-0.45 0.026,-0.951 -0.343,-1.254 L 95.079,29.419 A 1.127,1.127 0 0 0 94.36,29.161 H 72.443 L 56.234,17.993 56.232,17.995 a 1.126,1.126 0 0 0 -0.64,-0.203 z m 1.906,3.818 10.957,7.551 h -8.896 z m -1.906,1.606 1.623,5.945 h -3.248 z m -2.242,8.207 h 4.482 l 1.477,5.404 h -7.434 z m 6.828,0 h 8.23 l -6.943,4.71 z m 15.445,0 h 14.992 l -7.762,5.162 z m -3.549,0.246 7.225,5.158 H 64.473 Z m 22.213,0.03 7.23,5.161 H 86.525 l 0.051,-0.033 0.666,-0.443 1.983,-1.32 v 0.002 l 0.408,-0.272 z m -43.434,0.277 -1.324,4.851 H 30.912 Z m 0.672,7.113 h 6.534 l -6.534,6.535 z m 8.133,1.601 v 6.534 h -6.535 z m 32.621,0.21 h 2.614 v 12.324 l -1.307,1.828 -1.307,-1.828 z m -39.156,8.587 h 6.535 v 6.535 z m -1.598,1.6 6.534,6.535 h -6.534 z m 0,8.797 h 6.534 l -6.534,6.535 z m 8.133,1.601 v 6.534 h -6.535 z m -6.535,8.797 h 6.535 v 6.533 z m -1.598,1.6 6.534,6.533 h -6.534 z m 0,8.797 h 6.534 l -6.534,6.535 z m 8.133,1.6 v 6.535 h -6.535 z" />
   <path class="hoist" role="presentation" d="m 92.807,62.386 h 1.785 v 11.225 h -1.785 z" />
 </a>
</svg>
