<svg xmlns="http://www.w3.org/2000/svg" width="1280" height="640" role="img" aria-labelledby="premail_title premail_desc">
 <title id="premail_title">Premail</title>
 <desc id="premail_desc">Logo for Premail.dev</desc>
 <style type="text/css" >
   <![CDATA[
   .disc {
   fill: #cde4d9;
   }
   .crane {
   fill: #000;
   }
   .hoist {
   fill: #000;
   }
   .text {
   fill: #00b86f;
   }
   ]]>
 </style>
 <a href="https://premail.dev" hreflang="en" transform="matrix(5.7873546,0,0,5.7873546,-30.2704,24.07348)">
  <g class="text" role="presentation">
    <g>
      <path d="M 74.313,90.7 V 57.72 h 4.394 l 0.896,2.261 q 0.811,-0.64 1.878,-1.237 1.066,-0.597 2.304,-0.939 1.237,-0.384 2.56,-0.384 2.176,0 3.712,0.854 1.578,0.853 2.56,2.432 0.981,1.536 1.408,3.712 0.47,2.133 0.47,4.736 0,3.754 -0.812,6.4 -0.768,2.602 -2.56,3.968 -1.749,1.365 -4.778,1.365 -1.707,0 -3.499,-0.47 -1.75,-0.469 -3.243,-1.237 V 90.7 Z M 84.68,76.535 q 1.237,0 2.261,-0.64 1.024,-0.683 1.621,-2.261 0.64,-1.579 0.64,-4.48 0,-2.774 -0.597,-4.438 -0.597,-1.664 -1.621,-2.346 -0.982,-0.683 -2.262,-0.683 -1.578,0 -2.858,0.512 -1.28,0.47 -2.262,0.981 v 11.947 q 1.11,0.64 2.432,1.024 1.323,0.384 2.646,0.384 z" aria-label="p" />
    </g>
    <g>
      <path d="m 99.562,86.778 v -22.87 h 4.096 l 1.195,3.67 q 1.365,-1.664 3.029,-2.816 1.664,-1.152 3.968,-1.152 0.47,0 0.981,0.085 0.512,0.043 0.939,0.171 v 5.376 q -0.597,-0.085 -1.28,-0.128 -0.683,-0.043 -1.323,-0.043 -1.322,0 -2.432,0.299 -1.066,0.299 -2.005,0.939 -0.939,0.597 -1.877,1.536 v 14.933 z" aria-label="r" />
    </g>
    <g>
      <path d="m 127.558,86.778 q -3.712,0 -5.93,-1.024 -2.176,-1.024 -3.158,-3.541 -0.98,-2.56 -0.98,-7.083 0,-4.608 0.938,-7.125 0.938,-2.56 3.114,-3.584 2.176,-1.024 5.888,-1.024 3.286,0 5.248,0.682 2.006,0.64 2.902,2.347 0.938,1.664 0.938,4.736 0,2.176 -0.853,3.499 -0.853,1.28 -2.475,1.834 -1.578,0.555 -3.754,0.555 h -6.699 q 0.085,2.133 0.555,3.413 0.512,1.238 1.792,1.792 1.322,0.555 3.84,0.555 h 6.912 v 3.115 q -1.75,0.341 -3.712,0.597 -1.92,0.256 -4.566,0.256 z M 122.694,73.85 h 6.23 q 1.493,0 2.176,-0.555 0.725,-0.597 0.725,-2.133 0,-1.493 -0.427,-2.347 -0.426,-0.853 -1.408,-1.194 -0.98,-0.384 -2.56,-0.384 -1.792,0 -2.816,0.554 -1.024,0.555 -1.493,2.006 -0.427,1.408 -0.427,4.053 z" aria-label="e" />
    </g>
    <g>
      <path d="m 141.317,86.778 v -22.87 h 4.309 l 0.981,2.39 q 1.579,-1.11 3.456,-1.92 1.92,-0.853 4.523,-0.853 2.133,0 3.584,0.938 1.493,0.896 2.219,2.347 0.981,-0.768 2.346,-1.493 1.408,-0.768 2.987,-1.28 1.579,-0.512 3.115,-0.512 2.645,0 4.224,1.066 1.621,1.024 2.304,2.902 0.682,1.834 0.682,4.266 v 15.019 h -5.29 V 72.186 q 0,-1.237 -0.47,-2.09 -0.469,-0.854 -1.322,-1.323 -0.811,-0.47 -2.006,-0.47 -1.536,0 -3.114,0.598 -1.536,0.597 -2.816,1.45 0.17,0.427 0.213,0.939 0.085,0.512 0.085,1.024 v 14.464 h -5.29 V 72.186 q 0,-1.237 -0.47,-2.09 -0.469,-0.854 -1.322,-1.323 -0.811,-0.47 -2.006,-0.47 -1.109,0 -2.09,0.214 -0.939,0.213 -1.792,0.64 -0.854,0.426 -1.75,1.024 v 16.597 z" aria-label="m" />
    </g>
    <g>
      <path d="m 186.48,86.778 q -2.56,0 -4.182,-1.536 -1.622,-1.536 -1.622,-4.224 v -1.92 q 0,-2.645 1.792,-4.31 1.835,-1.663 5.59,-1.663 h 6.528 v -2.006 q 0,-1.194 -0.427,-2.005 -0.427,-0.81 -1.536,-1.195 -1.11,-0.426 -3.37,-0.426 H 182.34 V 64.42 q 1.58,-0.427 3.712,-0.726 2.134,-0.341 5.078,-0.341 2.816,-0.043 4.778,0.683 1.963,0.682 2.944,2.304 1.024,1.621 1.024,4.437 v 15.744 h -4.138 l -0.896,-2.475 q -0.299,0.256 -1.067,0.683 -0.768,0.427 -1.92,0.939 -1.152,0.469 -2.56,0.81 -1.365,0.299 -2.816,0.299 z m 2.56,-3.712 q 0.554,0 1.236,-0.128 l 1.451,-0.341 q 0.725,-0.214 1.323,-0.384 0.64,-0.214 1.024,-0.384 0.426,-0.171 0.512,-0.214 v -5.973 l -4.95,0.256 q -1.962,0.17 -2.858,1.024 -0.854,0.853 -0.854,2.261 v 0.939 q 0,1.067 0.427,1.75 0.47,0.64 1.152,0.895 0.725,0.256 1.536,0.299 z" aria-label="a" />
    </g>
    <g>
      <path d="m 205.924,60.157 q -0.81,0 -0.81,-0.768 v -3.883 q 0,-0.853 0.81,-0.853 h 4.011 q 0.384,0 0.555,0.256 0.213,0.256 0.213,0.597 v 3.883 q 0,0.768 -0.768,0.768 z m -0.682,26.496 v -22.87 h 5.29 v 22.87 z" aria-label="i" />
    </g>
    <g>
      <path d="m 222.957,86.778 q -2.261,0 -3.797,-0.768 -1.493,-0.768 -2.261,-2.39 -0.726,-1.62 -0.726,-4.309 V 54.138 h 5.29 v 24.448 q 0,1.536 0.3,2.39 0.34,0.853 0.938,1.237 0.598,0.341 1.45,0.469 l 1.92,0.256 v 3.84 z" aria-label="l" />
    </g>
  </g>
  <path class="underline" role="presentation" d="M 98.496,91.222 H 226.834 V 92.93 H 98.496 Z" />
  <path class="crane" role="presentation" d="m 45.555,7.195 c -0.51,0 -0.957,0.342 -1.092,0.834 l -2.965,10.856 -21.924,5.334 0.012,0.039 -13.924,4.022 v 1.96 H 16.06 v -1.747 h 1.15 v 1.746 h 10.398 v -1.746 h 11.62 v 59.265 h -2.344 v 3.467 H 26.88 v 1.709 h 37.39 v -1.71 H 54.064 v -3.466 h -2.183 v -6.955 h 0.002 V 28.494 h 27.306 v 1.809 h 0.997 v 12.656 c 0,0.215 0.065,0.424 0.191,0.598 l 2.041,2.851 v 1.836 a 3.446,3.446 0 0 0 -2.307,3.246 3.44,3.44 0 0 0 3.438,3.436 c 1.093,0 2.13,-0.528 2.775,-1.412 a 1.13,1.13 0 0 0 -0.246,-1.58 1.13,1.13 0 0 0 -1.58,0.246 1.175,1.175 0 0 1 -2.123,-0.69 c 0,-0.648 0.527,-1.174 1.174,-1.174 0.625,0 1.13,-0.506 1.13,-1.132 v -2.776 l 2.042,-2.853 c 0.125,-0.174 0.191,-0.383 0.191,-0.598 V 30.303 h 1.485 v -1.809 h 5.236 a 1.13,1.13 0 0 0 1.064,-0.75 c 0.163,-0.45 0.026,-0.95 -0.343,-1.254 L 85.041,18.822 A 1.127,1.127 0 0 0 84.322,18.564 H 62.406 L 46.197,7.396 46.195,7.398 a 1.126,1.126 0 0 0 -0.64,-0.203 z m 1.906,3.819 10.957,7.55 h -8.897 z m -1.906,1.605 1.623,5.945 H 43.93 Z m -2.242,8.207 h 4.482 l 1.476,5.404 h -7.433 z m 6.828,0 h 8.23 l -6.943,4.711 z m 15.445,0 h 14.992 l -7.762,5.162 z m -3.549,0.246 7.225,5.158 H 54.436 Z m 22.213,0.03 7.23,5.162 H 76.488 l 0.051,-0.034 0.666,-0.443 1.982,-1.32 v 0.002 l 0.409,-0.272 z M 40.816,21.379 39.492,26.23 H 20.875 Z m 0.672,7.113 h 6.533 l -6.533,6.535 z m 8.133,1.602 v 6.533 h -6.535 z m 32.621,0.209 h 2.613 v 12.324 l -1.306,1.828 -1.307,-1.828 z M 43.086,38.89 h 6.535 v 6.535 z m -1.598,1.6 6.533,6.534 h -6.533 z m 0,8.796 h 6.533 l -6.533,6.535 z m 8.133,1.602 v 6.533 h -6.535 z m -6.535,8.797 h 6.535 v 6.533 z m -1.598,1.6 6.533,6.532 h -6.533 z m 0,8.796 h 6.533 l -6.533,6.535 z m 8.133,1.6 v 6.535 h -6.535 z" />
  <path class="hoist" role="presentation" d="m 82.77,51.79 h 1.785 V 63.014 H 82.77 Z" />
</a>
</svg>
